<svg width="65" height="65" viewBox="0 0 65 65" fill="none" xmlns="http://www.w3.org/2000/svg">
  <!-- Medium chick - pixel style -->
  <!-- Body -->
  <rect x="16" y="36" width="32" height="12" fill="#FFD700"/>
  <rect x="12" y="32" width="40" height="4" fill="#FFD700"/>
  <rect x="10" y="28" width="44" height="4" fill="#FFED4E"/>
  <rect x="12" y="24" width="40" height="4" fill="#FFED4E"/>
  
  <!-- Head -->
  <rect x="20" y="20" width="24" height="4" fill="#FFED4E"/>
  <rect x="22" y="16" width="20" height="4" fill="#FFF176"/>
  <rect x="24" y="12" width="16" height="4" fill="#FFF176"/>
  
  <!-- Comb -->
  <rect x="28" y="8" width="2" height="4" fill="#F44336"/>
  <rect x="30" y="6" width="2" height="6" fill="#F44336"/>
  <rect x="32" y="8" width="2" height="4" fill="#F44336"/>
  
  <!-- Eyes -->
  <rect x="26" y="18" width="2" height="2" fill="#333333"/>
  <rect x="36" y="18" width="2" height="2" fill="#333333"/>
  
  <!-- Beak -->
  <rect x="28" y="21" width="8" height="4" fill="#333333"/>
  <rect x="29" y="22" width="6" height="2" fill="#FF9800"/>
  
  <!-- Wings -->
  <rect x="8" y="26" width="8" height="8" fill="#FFC107"/>
  <rect x="48" y="26" width="8" height="8" fill="#FFC107"/>
  
  <!-- Feet -->
  <rect x="22" y="48" width="6" height="6" fill="#FF9800"/>
  <rect x="36" y="48" width="6" height="6" fill="#FF9800"/>
</svg>