<svg width="110" height="110" viewBox="0 0 110 110" fill="none" xmlns="http://www.w3.org/2000/svg">
  <!-- Ultimate Buff chicken - pixel style -->
  <!-- Massive body -->
  <rect x="20" y="62" width="70" height="24" fill="#FFD700"/>
  <rect x="15" y="58" width="80" height="4" fill="#FFD700"/>
  <rect x="10" y="54" width="90" height="4" fill="#FFED4E"/>
  <rect x="8" y="50" width="94" height="4" fill="#FFED4E"/>
  <rect x="10" y="46" width="90" height="4" fill="#FFED4E"/>
  <rect x="15" y="42" width="80" height="4" fill="#FFED4E"/>
  
  <!-- Six-pack abs -->
  <rect x="42" y="50" width="8" height="6" fill="#FFB300"/>
  <rect x="60" y="50" width="8" height="6" fill="#FFB300"/>
  <rect x="42" y="58" width="8" height="6" fill="#FFB300"/>
  <rect x="60" y="58" width="8" height="6" fill="#FFB300"/>
  <rect x="42" y="66" width="8" height="6" fill="#FFB300"/>
  <rect x="60" y="66" width="8" height="6" fill="#FFB300"/>
  
  <!-- Abs definition lines -->
  <rect x="50" y="48" width="10" height="2" fill="#FF8F00"/>
  <rect x="48" y="56" width="14" height="2" fill="#FF8F00"/>
  <rect x="48" y="64" width="14" height="2" fill="#FF8F00"/>
  <rect x="50" y="72" width="10" height="2" fill="#FF8F00"/>
  
  <!-- Massive chest muscles -->
  <rect x="25" y="38" width="20" height="12" fill="#FFB300"/>
  <rect x="65" y="38" width="20" height="12" fill="#FFB300"/>
  
  <!-- Chest definition -->
  <rect x="30" y="42" width="10" height="2" fill="#FF8F00"/>
  <rect x="70" y="42" width="10" height="2" fill="#FF8F00"/>
  
  <!-- Head -->
  <rect x="35" y="28" width="40" height="4" fill="#FFED4E"/>
  <rect x="40" y="24" width="30" height="4" fill="#FFF176"/>
  <rect x="42" y="20" width="26" height="4" fill="#FFF176"/>
  
  <!-- Neck connection -->
  <rect x="40" y="32" width="30" height="4" fill="#FFED4E"/>
  <rect x="35" y="36" width="40" height="4" fill="#FFD700"/>
  
  <!-- Epic Crown Comb -->
  <rect x="46" y="16" width="2" height="4" fill="#F44336"/>
  <rect x="48" y="12" width="2" height="8" fill="#F44336"/>
  <rect x="50" y="8" width="2" height="12" fill="#F44336"/>
  <rect x="52" y="4" width="2" height="16" fill="#F44336"/>
  <rect x="54" y="2" width="2" height="18" fill="#F44336"/>
  <rect x="56" y="4" width="2" height="16" fill="#F44336"/>
  <rect x="58" y="8" width="2" height="12" fill="#F44336"/>
  <rect x="60" y="12" width="2" height="8" fill="#F44336"/>
  <rect x="62" y="16" width="2" height="4" fill="#F44336"/>
  
  <!-- Eyes -->
  <rect x="44" y="26" width="4" height="2" fill="#333333"/>
  <rect x="62" y="26" width="4" height="2" fill="#333333"/>
  
  <!-- Beak -->
  <rect x="52" y="30" width="8" height="4" fill="#333333"/>
  <rect x="53" y="31" width="6" height="2" fill="#FF9800"/>
  
  <!-- Massive Biceps and Wings -->
  <!-- Left arm with huge bicep -->
  <rect x="0" y="36" width="20" height="16" fill="#FFC107"/>
  <rect x="-2" y="30" width="12" height="12" fill="#FFB300"/> <!-- Left bicep -->
  <rect x="0" y="28" width="10" height="6" fill="#FF8F00"/> <!-- Bicep definition -->
  <rect x="2" y="34" width="8" height="2" fill="#FF6F00"/> <!-- Muscle peak -->
  
  <!-- Right arm with huge bicep -->
  <rect x="90" y="36" width="20" height="16" fill="#FFC107"/>
  <rect x="100" y="30" width="12" height="12" fill="#FFB300"/> <!-- Right bicep -->
  <rect x="100" y="28" width="10" height="6" fill="#FF8F00"/> <!-- Bicep definition -->
  <rect x="100" y="34" width="8" height="2" fill="#FF6F00"/> <!-- Muscle peak -->
  
  <!-- Shoulder muscles -->
  <rect x="18" y="34" width="12" height="8" fill="#FFB300"/>
  <rect x="80" y="34" width="12" height="8" fill="#FFB300"/>
  
  <!-- Epic tail feathers -->
  <rect x="92" y="32" width="14" height="6" fill="#FFC107"/>
  <rect x="96" y="28" width="10" height="4" fill="#FFD54F"/>
  <rect x="98" y="24" width="8" height="4" fill="#FFE082"/>
  <rect x="100" y="20" width="6" height="4" fill="#FFF9C4"/>
  
  <!-- Massive Strong Feet -->
  <rect x="38" y="86" width="12" height="12" fill="#FF9800"/>
  <rect x="60" y="86" width="12" height="12" fill="#FF9800"/>
  
  <!-- Overall muscle definition lines -->
  <rect x="30" y="40" width="50" height="1" fill="#FFB300"/>
  <rect x="25" y="52" width="60" height="1" fill="#FFB300"/>
  <rect x="28" y="60" width="54" height="1" fill="#FFB300"/>
</svg>